<svg xmlns="http://www.w3.org/2000/svg" version="1.1" xmlns:xlink="http://www.w3.org/1999/xlink" xmlns:svgjs="http://svgjs.com/svgjs" width="450" height="468"><svg id="SvgjsSvg1000" xmlns="http://www.w3.org/2000/svg" viewBox="0 0 450 468"><defs><style>.cls-1{fill:#000;}.cls-1,.cls-2{stroke-width:0px;}.cls-2{fill:#fff;}</style></defs><path class="cls-2" d="M450,468H0V0h450v468ZM199.4,225.19c-4.15,3.87-7.91,7.3-11.59,10.83-12.6,12.09-24.87,24.54-37.84,36.22-10.6,9.55-21.96,18.27-33.1,27.21-3.9,3.13-8.29,4.21-13.53,3.24-5.67-1.05-11.56-1.37-17.35-1.3-17.19.19-31.04,16.61-28.7,33.67,2.15,15.74,9.59,24.31,25.04,28.36,4.43,1.16,6.62,3.37,7.15,8.1.39,3.46,1.51,7.31,3.57,10.03,6.87,9.06,21.84,13.15,33.59,9.23,11.94-3.98,20.06-11.72,21.05-24.97.39-5.26.52-10.73-.48-15.87-1.55-7.93.05-14.41,4.92-20.89,21.38-28.43,47.24-52.68,71.81-78.43,1.19,1.08,2.22,1.9,3.13,2.83,12.42,12.75,25.17,25.2,37.13,38.36,11.5,12.65,22.27,25.98,33.19,39.15,3.71,4.47,5.71,9.46,4.19,15.69-1.09,4.46-1.07,9.22-1.26,13.86-.52,12.67,4.62,22.34,16.05,28.04,11.85,5.91,23.46,4.85,34.36-2.69,4.36-3.01,8.28-6.96,8.13-12.47-.19-7.25,3.69-9.11,9.74-10.56,14.81-3.54,24.49-19.07,22.39-34.91-2.08-15.71-14.14-26.55-29.77-26.6-3.8-.01-7.75-.05-11.39.86-9.09,2.29-16.65-.2-23.39-6.25-19.04-17.09-38.14-34.13-57.1-51.31-6.87-6.22-13.42-12.79-20.33-19.4,13.78-13.33,26.83-26.62,40.62-39.08,13.3-12.02,27.38-23.17,41.07-34.77,4.57-3.87,9.8-4.44,15.44-3.66,3.94.54,7.9,1.15,11.87,1.32,9.87.42,18.72-1.87,25.46-9.86,15.62-18.5,6.32-48.25-17.57-52.44-4.67-.82-6.59-3.23-6.96-8.08-.27-3.43-1.48-7.51-3.73-9.95-8.82-9.59-20.01-12.78-32.62-9.31-12.29,3.38-20.23,11.3-22,24.22-.64,4.71-.69,9.79.38,14.38,2.26,9.72.32,17.85-6.27,25.31-10.45,11.83-20,24.51-31.04,35.76-13.14,13.39-27.44,25.64-41.25,38.4-3.81-3.72-9.61-9.15-15.14-14.84-19.47-20.02-39.19-39.82-55.83-62.39-4.39-5.95-5.38-11.92-4.43-19.12.91-6.82,1.27-14.07-.04-20.75-2.38-12.21-11.35-18.91-22.98-21.44-12.48-2.72-23.36.94-31.74,10.81-1.32,1.55-2.44,3.89-2.42,5.85.1,7.46-3.45,10.6-10.64,12.25-13.5,3.1-23.35,17.98-22.08,31.73,1.53,16.57,11.51,27.66,26.72,29.12,4.91.47,10.14.71,14.86-.43,9.2-2.22,16.32.68,23.45,6.18,23.78,18.34,44.87,39.59,66.32,60.46,3.42,3.33,6.95,6.54,10.93,10.28Z"></path><path class="cls-1" d="M199.4,225.19c-3.98-3.74-7.51-6.96-10.93-10.28-21.45-20.87-42.53-42.12-66.32-60.46-7.13-5.5-14.26-8.4-23.45-6.18-4.72,1.14-9.95.9-14.86.43-15.21-1.46-25.19-12.55-26.72-29.12-1.27-13.75,8.58-28.63,22.08-31.73,7.19-1.65,10.73-4.78,10.64-12.25-.03-1.96,1.1-4.29,2.42-5.85,8.38-9.88,19.26-13.53,31.74-10.81,11.63,2.53,20.6,9.22,22.98,21.44,1.3,6.69.94,13.93.04,20.75-.96,7.2.04,13.17,4.43,19.12,16.65,22.58,36.36,42.37,55.83,62.39,5.53,5.69,11.34,11.12,15.14,14.84,13.82-12.76,28.11-25.01,41.25-38.4,11.03-11.24,20.59-23.92,31.04-35.76,6.59-7.46,8.53-15.59,6.27-25.31-1.07-4.59-1.02-9.67-.38-14.38,1.77-12.92,9.71-20.83,22-24.22,12.61-3.47,23.79-.28,32.62,9.31,2.25,2.45,3.46,6.52,3.73,9.95.37,4.85,2.29,7.26,6.96,8.08,23.88,4.19,33.18,33.94,17.57,52.44-6.74,7.99-15.59,10.28-25.46,9.86-3.97-.17-7.93-.78-11.87-1.32-5.64-.78-10.87-.21-15.44,3.66-13.69,11.59-27.77,22.74-41.07,34.77-13.79,12.47-26.83,25.75-40.62,39.08,6.9,6.61,13.46,13.17,20.33,19.4,18.96,17.18,38.06,34.21,57.1,51.31,6.74,6.05,14.29,8.54,23.39,6.25,3.64-.92,7.58-.87,11.39-.86,15.63.04,27.69,10.89,29.77,26.6,2.1,15.84-7.58,31.36-22.39,34.91-6.05,1.45-9.94,3.31-9.74,10.56.15,5.51-3.77,9.45-8.13,12.47-10.89,7.53-22.5,8.59-34.36,2.69-11.43-5.7-16.57-15.37-16.05-28.04.19-4.64.17-9.4,1.26-13.86,1.52-6.23-.48-11.23-4.19-15.69-10.92-13.17-21.69-26.5-33.19-39.15-11.96-13.16-24.71-25.61-37.13-38.36-.91-.93-1.94-1.76-3.13-2.83-24.56,25.75-50.43,50-71.81,78.43-4.87,6.48-6.47,12.96-4.92,20.89,1,5.13.87,10.6.48,15.87-.98,13.25-9.1,20.99-21.05,24.97-11.75,3.92-26.72-.17-33.59-9.23-2.06-2.72-3.18-6.57-3.57-10.03-.53-4.73-2.72-6.94-7.15-8.1-15.45-4.05-22.89-12.62-25.04-28.36-2.33-17.07,11.51-33.48,28.7-33.67,5.79-.06,11.68.25,17.35,1.3,5.24.97,9.63-.11,13.53-3.24,11.14-8.94,22.5-17.66,33.1-27.21,12.97-11.68,25.24-24.13,37.84-36.22,3.67-3.53,7.44-6.96,11.59-10.83ZM89.8,306.9c-18.64-.21-30.65,14.46-25.98,32.29,2.72,10.37,9.52,16.67,20.18,19,8.07,1.77,9.79,4.44,10.97,12.55.43,2.93,1.63,6.31,3.63,8.36,8.81,9.06,24.62,9.68,34.71,1.98,8.61-6.57,10.78-15.71,8.64-25.4-3.03-13.71-.06-25.15,9.54-35.19,2.63-2.75,4.61-6.12,7.23-8.88,26.21-27.58,52.3-55.27,78.81-82.56,15.16-15.6,30.66-30.92,46.68-45.63,13.93-12.79,28.75-24.63,43.31-36.72,5.67-4.71,12.19-6.12,19.61-4.47,4.65,1.04,9.58,1.27,14.37,1.16,13.26-.29,23.1-10.11,23.77-23.3.73-14.2-6.43-23.88-20.44-27.62-8.52-2.28-10.76-5.11-11.66-13.83-.23-2.19-.99-4.64-2.31-6.35-5.71-7.37-18.44-10.37-28.27-6.98-10.42,3.6-16.25,11.16-16.42,21.85-.07,4.46.2,8.98.87,13.39,1.26,8.25.43,15.82-5.15,22.48-8.96,10.69-17.11,22.16-26.83,32.1-37.03,37.9-74.29,75.59-112.05,112.77-12.75,12.55-27.24,23.32-40.91,34.93-6.45,5.48-13.86,6.64-21.95,5.27-3.43-.58-6.91-.82-10.37-1.21ZM202.2,222.51c6.88-7.19,12.24-12.79,17.77-18.56-1.17-1.29-2.12-2.41-3.15-3.47-12.86-13.24-26.12-26.1-38.47-39.79-11.66-12.93-22.45-26.65-33.45-40.17-4.23-5.19-5.08-11.26-3.7-17.87.87-4.2,1.19-8.57,1.28-12.87.25-11.53-4.72-19.64-14.69-23.72-10.47-4.29-20.27-2.74-28.69,4.84-2.02,1.82-3.53,4.9-4.02,7.63-1.79,10.04-3.13,11.79-12.9,14.18-12.94,3.16-21.51,16.62-18.92,29.71,3.04,15.36,14.31,23.65,30.34,20.52,13.29-2.59,24.49-.37,34.43,8.81,22.08,20.4,44.28,40.68,66.32,61.14,2.77,2.57,4.84,5.88,7.86,9.63ZM228.79,246.9c.82.87,1.91,2.07,3.05,3.24,12.86,13.24,26.12,26.11,38.47,39.81,11.65,12.94,22.4,26.7,33.42,40.2,3.41,4.18,4.37,9.15,3.73,14.55-.64,5.43-1.05,10.91-1.32,16.37-.56,11.06,4.41,18.78,14.52,23.17,9.82,4.26,21.9,2.24,29.09-5.13,1.62-1.66,3.03-4.1,3.36-6.35,1.58-10.81,2.72-12.57,13.17-15.13,8.71-2.13,14.24-7.61,17.41-15.59,5.69-14.32-2.18-31.29-16.19-34.2-5.25-1.09-11.11-1.27-16.32-.15-11.05,2.39-19.92-.6-28.63-7.39-26.04-20.3-49.23-43.65-72.54-66.88-1.38-1.37-2.21-3.3-3.23-4.87-6.71,6.85-12.25,12.49-17.98,18.35Z"></path><path class="cls-2" d="M89.8,306.9c3.46.39,6.94.63,10.37,1.21,8.1,1.37,15.51.21,21.95-5.27,13.67-11.61,28.16-22.38,40.91-34.93,37.76-37.18,75.02-74.87,112.05-112.77,9.72-9.94,17.87-21.41,26.83-32.1,5.58-6.66,6.41-14.23,5.15-22.48-.67-4.41-.94-8.93-.87-13.39.16-10.69,5.99-18.25,16.42-21.85,9.83-3.39,22.55-.4,28.27,6.98,1.32,1.71,2.09,4.16,2.31,6.35.9,8.73,3.14,11.55,11.66,13.83,14.01,3.74,21.17,13.42,20.44,27.62-.68,13.18-10.52,23-23.77,23.3-4.79.11-9.72-.13-14.37-1.16-7.42-1.65-13.94-.24-19.61,4.47-14.56,12.1-29.38,23.93-43.31,36.72-16.02,14.71-31.52,30.02-46.68,45.63-26.51,27.29-52.61,54.98-78.81,82.56-2.62,2.76-4.6,6.13-7.23,8.88-9.59,10.04-12.56,21.48-9.54,35.19,2.14,9.69-.03,18.83-8.64,25.4-10.09,7.7-25.9,7.07-34.71-1.98-2-2.05-3.21-5.43-3.63-8.36-1.18-8.11-2.9-10.78-10.97-12.55-10.66-2.34-17.47-8.64-20.18-19-4.67-17.83,7.34-32.5,25.98-32.29ZM104.36,365.22c.05.16.1.33.15.49,4.11-1.12,8.28-2.07,12.29-3.48.96-.34,1.38-2.2,2.05-3.36-1.16-.61-2.38-1.84-3.46-1.73-4.72.5-9.42,1.28-14.08,2.22-1.03.21-2.64,1.58-2.56,2.27.12,1.17,1.16,2.53,2.21,3.23.83.56,2.24.27,3.4.35ZM343.25,85.41c-.04-.16-.08-.32-.11-.47-3.48.87-7.08,1.44-10.4,2.74-1.4.54-2.2,2.6-3.28,3.97,1.66.41,3.36,1.29,4.96,1.14,3.9-.37,7.79-1.06,11.6-1.96,1.47-.35,2.71-1.65,4.05-2.51-1.29-.97-2.48-2.12-3.89-2.83-.79-.4-1.94-.07-2.93-.07Z"></path><path class="cls-2" d="M202.2,222.51c-3.02-3.75-5.09-7.07-7.86-9.63-22.04-20.45-44.24-40.73-66.32-61.14-9.94-9.18-21.14-11.41-34.43-8.81-16.03,3.13-27.3-5.16-30.34-20.52-2.59-13.09,5.98-26.55,18.92-29.71,9.78-2.39,11.12-4.13,12.9-14.18.49-2.73,1.99-5.81,4.02-7.63,8.42-7.58,18.21-9.13,28.69-4.84,9.97,4.09,14.94,12.2,14.69,23.72-.1,4.3-.41,8.67-1.28,12.87-1.37,6.61-.52,12.67,3.7,17.87,11,13.52,21.79,27.24,33.45,40.17,12.35,13.69,25.62,26.56,38.47,39.79,1.03,1.06,1.98,2.18,3.15,3.47-5.53,5.78-10.89,11.38-17.77,18.56ZM105.71,84.99c-.04.13-.08.25-.12.38-.82,0-1.81-.29-2.44.06-1.61.88-3.06,2.05-4.57,3.11,1.54.78,3,1.86,4.64,2.27,3.65.92,7.36,1.69,11.09,2.11,1.42.16,2.97-.8,4.46-1.25-.87-1.33-1.46-3.39-2.67-3.86-3.33-1.29-6.91-1.93-10.39-2.82Z"></path><path class="cls-2" d="M228.79,246.9c5.74-5.85,11.27-11.5,17.98-18.35,1.02,1.57,1.85,3.5,3.23,4.87,23.31,23.23,46.49,46.58,72.54,66.88,8.71,6.79,17.58,9.79,28.63,7.39,5.21-1.13,11.07-.95,16.32.15,14,2.91,21.87,19.89,16.19,34.2-3.17,7.98-8.7,13.46-17.41,15.59-10.45,2.56-11.59,4.32-13.17,15.13-.33,2.25-1.74,4.69-3.36,6.35-7.19,7.36-19.27,9.39-29.09,5.13-10.11-4.39-15.07-12.11-14.52-23.17.28-5.47.68-10.94,1.32-16.37.64-5.4-.32-10.37-3.73-14.55-11.02-13.5-21.76-27.27-33.42-40.2-12.34-13.7-25.61-26.57-38.47-39.81-1.13-1.17-2.23-2.37-3.05-3.24ZM343.87,365.7c.05-.19.1-.39.14-.58.82,0,1.86.32,2.43-.06,1.33-.91,2.44-2.15,3.63-3.25-1.24-.85-2.37-2.15-3.73-2.45-4.29-.95-8.65-1.7-13.03-2.12-1.25-.12-2.63,1.15-3.95,1.79.74,1.13,1.24,2.92,2.25,3.26,4,1.38,8.15,2.32,12.25,3.42Z"></path><path class="cls-1" d="M104.36,365.22c-1.15-.09-2.56.21-3.4-.35-1.04-.7-2.08-2.06-2.21-3.23-.07-.69,1.54-2.06,2.56-2.27,4.65-.94,9.36-1.72,14.08-2.22,1.08-.11,2.3,1.12,3.46,1.73-.67,1.16-1.09,3.02-2.05,3.36-4.01,1.41-8.18,2.36-12.29,3.48-.05-.16-.1-.33-.15-.49Z"></path><path class="cls-1" d="M343.25,85.41c.99,0,2.14-.33,2.93.07,1.41.71,2.61,1.86,3.89,2.83-1.34.86-2.59,2.16-4.05,2.51-3.81.91-7.7,1.59-11.6,1.96-1.6.15-3.31-.73-4.96-1.14,1.07-1.37,1.88-3.43,3.28-3.97,3.32-1.29,6.91-1.87,10.4-2.74.04.16.08.32.11.47Z"></path><path class="cls-1" d="M105.71,84.99c3.48.89,7.07,1.52,10.39,2.82,1.21.47,1.8,2.53,2.67,3.86-1.49.45-3.04,1.41-4.46,1.25-3.73-.42-7.44-1.2-11.09-2.11-1.63-.41-3.1-1.49-4.64-2.27,1.51-1.06,2.97-2.22,4.57-3.11.63-.35,1.62-.06,2.44-.06.04-.13.08-.25.12-.38Z"></path><path class="cls-1" d="M343.87,365.7c-4.1-1.1-8.25-2.04-12.25-3.42-1.01-.35-1.51-2.14-2.25-3.26,1.32-.63,2.7-1.91,3.95-1.79,4.37.42,8.73,1.17,13.03,2.12,1.36.3,2.49,1.61,3.73,2.45-1.2,1.11-2.3,2.35-3.63,3.25-.56.38-1.6.06-2.43.06-.05.19-.1.39-.14.58Z"></path></svg><style>@media (prefers-color-scheme: light) { :root { filter: none; } }
</style></svg>